<svg id="アイコン" xmlns="http://www.w3.org/2000/svg" width="132" height="22" viewBox="0 0 132 22">
  <g id="グループ_61" data-name="グループ 61">
    <path id="パス_105" data-name="パス 105" d="M0,24.147V4.18H10.853V7.37H3.429v5.078h6.4v3.221h-6.4v5.284h7.424v3.194H0Z" transform="translate(0 -2.695)" fill="#f9f2e5"/>
    <path id="パス_106" data-name="パス 106" d="M44.123,31.461,41.5,26.844h-.188L38.7,31.461H35.32l4.129-6.994L35.427,17.69h3.564l2.484,4.375h.163l2.484-4.375H47.5l-3.97,6.749,4.129,7.019H44.123Z" transform="translate(-22.768 -10.008)" fill="#f9f2e5"/>
    <path id="パス_107" data-name="パス 107" d="M81.082,31.184a16.888,16.888,0,0,1-1.837.107,6.159,6.159,0,0,1-3.429-.757,3.465,3.465,0,0,1-1.432-2.2,20.1,20.1,0,0,1-.323-4.144,17.836,17.836,0,0,1,.366-4.129,3.617,3.617,0,0,1,1.457-2.228,5.944,5.944,0,0,1,3.309-.743,16.988,16.988,0,0,1,1.876.107,8.465,8.465,0,0,1,1.553.295v2.537a13.908,13.908,0,0,0-2.566-.217,3.961,3.961,0,0,0-1.823.309,1.631,1.631,0,0,0-.729,1.187,16.454,16.454,0,0,0-.174,2.875,15.81,15.81,0,0,0,.188,2.9,1.6,1.6,0,0,0,.743,1.173,4.094,4.094,0,0,0,1.823.295,17.8,17.8,0,0,0,2.644-.188v2.509a10.617,10.617,0,0,1-1.645.3Z" transform="translate(-47.315 -9.621)" fill="#f9f2e5"/>
    <path id="パス_108" data-name="パス 108" d="M105.9,3.292V0h3.319V3.292H105.9Zm.028,18.161V6.728h3.266V21.453Z" transform="translate(-67.147)" fill="#f9f2e5"/>
    <path id="パス_109" data-name="パス 109" d="M159.77,25.229h-7.534a9.724,9.724,0,0,0,.174,2.253,1.223,1.223,0,0,0,.835.864,7.953,7.953,0,0,0,2.31.231,35.369,35.369,0,0,0,3.781-.217v2.509a14.243,14.243,0,0,1-2.051.3c-.846.071-1.667.107-2.456.107a8.359,8.359,0,0,1-3.9-.689,3.229,3.229,0,0,1-1.592-2.107,18.591,18.591,0,0,1-.366-4.279,17.976,17.976,0,0,1,.366-4.225,3.418,3.418,0,0,1,1.553-2.175,7.269,7.269,0,0,1,3.7-.729,6.746,6.746,0,0,1,3.55.7,3.067,3.067,0,0,1,1.365,2.093,25.221,25.221,0,0,1,.27,4.332v1.027Zm-6.749-5.238a1.259,1.259,0,0,0-.608.892,11.635,11.635,0,0,0-.174,2.132h4.453a9.712,9.712,0,0,0-.174-2.161,1.276,1.276,0,0,0-.622-.892,3.315,3.315,0,0,0-1.365-.217,3.472,3.472,0,0,0-1.51.242Z" transform="translate(-92.885 -9.608)" fill="#f9f2e5"/>
    <path id="パス_110" data-name="パス 110" d="M212.239,23.841a17.671,17.671,0,0,1-2.079.13,8.509,8.509,0,0,1-4.385-.87,4.424,4.424,0,0,1-1.862-2.956,31.311,31.311,0,0,1-.473-6.374,31.064,31.064,0,0,1,.473-6.359,4.481,4.481,0,0,1,1.876-2.956,8.438,8.438,0,0,1,4.375-.885,16.005,16.005,0,0,1,2.1.145,10.775,10.775,0,0,1,1.727.347V7.018a26.286,26.286,0,0,0-3.049-.259,6.548,6.548,0,0,0-2.807.42,2.285,2.285,0,0,0-1.013,1.766,33.606,33.606,0,0,0-.231,4.826,33.112,33.112,0,0,0,.231,4.826,2.278,2.278,0,0,0,1.013,1.766,6.488,6.488,0,0,0,2.807.42,19.229,19.229,0,0,0,3.131-.259v2.987a12.309,12.309,0,0,1-1.837.332Z" transform="translate(-125.854 -2.301)" fill="#f9f2e5"/>
    <path id="パス_111" data-name="パス 111" d="M241.709,30.69a2.86,2.86,0,0,1-1.485-2,21.962,21.962,0,0,1-.323-4.5,22.22,22.22,0,0,1,.323-4.52,2.82,2.82,0,0,1,1.485-1.983,8.945,8.945,0,0,1,3.806-.593,8.785,8.785,0,0,1,3.778.593,2.824,2.824,0,0,1,1.485,2,22.172,22.172,0,0,1,.323,4.51,21.961,21.961,0,0,1-.323,4.5,2.86,2.86,0,0,1-1.485,2,8.648,8.648,0,0,1-3.778.608,8.793,8.793,0,0,1-3.806-.608Zm5.455-2.388a1.387,1.387,0,0,0,.569-1.08,27.821,27.821,0,0,0,.107-3.024,28.056,28.056,0,0,0-.107-3.038,1.376,1.376,0,0,0-.554-1.066,3.5,3.5,0,0,0-1.66-.27,3.589,3.589,0,0,0-1.674.27,1.374,1.374,0,0,0-.569,1.066,27.728,27.728,0,0,0-.107,3.038,27.548,27.548,0,0,0,.107,3.024,1.367,1.367,0,0,0,.569,1.08,3.589,3.589,0,0,0,1.674.27,3.452,3.452,0,0,0,1.645-.27Z" transform="translate(-148.378 -9.628)" fill="#f9f2e5"/>
    <path id="パス_112" data-name="パス 112" d="M280.112,21.005a3.928,3.928,0,0,1-1.3-2.294,20.14,20.14,0,0,1-.405-4.6,20.616,20.616,0,0,1,.391-4.573A4.118,4.118,0,0,1,280.07,7.2a3.8,3.8,0,0,1,2.445-.707,4.97,4.97,0,0,1,2.161.418,2.912,2.912,0,0,1,1.35,1.428h.188V0h3.241V21.438h-3.024l-.107-1.819h-.188q-.784,2.051-3.536,2.047A4.07,4.07,0,0,1,280.116,21Zm5.142-2.682a1.551,1.551,0,0,0,.661-.866,6.424,6.424,0,0,0,.231-1.314c.046-.528.068-1.215.068-2.063,0-.79-.014-1.417-.039-1.892a4.84,4.84,0,0,0-.2-1.2,1.764,1.764,0,0,0-.647-1.067,2.365,2.365,0,0,0-1.35-.319,3.171,3.171,0,0,0-1.553.273,1.594,1.594,0,0,0-.593,1.155,20.967,20.967,0,0,0-.149,3.043,21.467,21.467,0,0,0,.149,3.073,1.594,1.594,0,0,0,.593,1.155,3.171,3.171,0,0,0,1.553.273,2.61,2.61,0,0,0,1.283-.258Z" transform="translate(-171.197)" fill="#f9f2e5"/>
    <path id="パス_113" data-name="パス 113" d="M328.56,25.229h-7.534a9.723,9.723,0,0,0,.174,2.253,1.223,1.223,0,0,0,.835.864,7.953,7.953,0,0,0,2.31.231,35.37,35.37,0,0,0,3.781-.217v2.509a14.244,14.244,0,0,1-2.051.3c-.846.071-1.667.107-2.456.107a8.359,8.359,0,0,1-3.9-.689,3.23,3.23,0,0,1-1.592-2.107,18.593,18.593,0,0,1-.366-4.279,17.977,17.977,0,0,1,.366-4.225,3.419,3.419,0,0,1,1.553-2.175,7.269,7.269,0,0,1,3.7-.729,6.745,6.745,0,0,1,3.55.7,3.067,3.067,0,0,1,1.365,2.093,25.223,25.223,0,0,1,.27,4.332v1.027Zm-6.749-5.238a1.259,1.259,0,0,0-.608.892,11.636,11.636,0,0,0-.174,2.132h4.453a9.709,9.709,0,0,0-.174-2.161,1.275,1.275,0,0,0-.622-.892,3.315,3.315,0,0,0-1.365-.217,3.472,3.472,0,0,0-1.51.242Z" transform="translate(-196.563 -9.608)" fill="#f9f2e5"/>
    <path id="パス_104" data-name="パス 104" d="M127.78,24.161a5.611,5.611,0,0,0,2.42-.519l-.235,2.63a7.129,7.129,0,0,1-2.708.547c-2.914,0-4.737-1.457-4.737-4.424V10.081l3.252-.441v3.54h4.449l-.235,2.42h-4.215V22c0,1.638.938,2.161,2,2.161Z" transform="translate(-76.608 -4.819)" fill="#f9f2e5"/>
  </g>
</svg>
