<svg id="ロゴ" xmlns="http://www.w3.org/2000/svg" xmlns:xlink="http://www.w3.org/1999/xlink" width="23" height="23" viewBox="0 0 23 23">
  <defs>
    <clipPath id="clip-path">
      <rect id="長方形_170" data-name="長方形 170" width="6.686" height="0.92" fill="none"/>
    </clipPath>
    <clipPath id="clip-path-2">
      <rect id="長方形_171" data-name="長方形 171" width="6.884" height="0.92" fill="none"/>
    </clipPath>
    <clipPath id="clip-path-3">
      <rect id="長方形_172" data-name="長方形 172" width="1.226" height="6.939" fill="none"/>
    </clipPath>
    <clipPath id="clip-path-4">
      <rect id="長方形_173" data-name="長方形 173" width="1.226" height="6.937" fill="none"/>
    </clipPath>
    <clipPath id="clip-path-5">
      <rect id="長方形_174" data-name="長方形 174" width="14.414" height="14.603" fill="none"/>
    </clipPath>
    <clipPath id="clip-path-6">
      <rect id="長方形_175" data-name="長方形 175" width="14.414" height="14.607" fill="none"/>
    </clipPath>
    <clipPath id="clip-path-7">
      <rect id="長方形_176" data-name="長方形 176" width="14.552" height="14.414" fill="none"/>
    </clipPath>
    <clipPath id="clip-path-8">
      <rect id="長方形_177" data-name="長方形 177" width="14.352" height="14.414" fill="none"/>
    </clipPath>
  </defs>
  <g id="グループ_67" data-name="グループ 67" transform="translate(16.314 11.042)" clip-path="url(#clip-path)">
    <path id="パス_147" data-name="パス 147" d="M77.805,49.51H72.06" transform="translate(-71.57 -49.05)" fill="none" stroke="#222" stroke-linecap="round" stroke-linejoin="round" stroke-width="1"/>
  </g>
  <g id="グループ_68" data-name="グループ 68" transform="translate(0 11.042)" clip-path="url(#clip-path-2)">
    <path id="パス_148" data-name="パス 148" d="M7.715,49.51H1.97" transform="translate(-1.517 -49.05)" fill="none" stroke="#222" stroke-linecap="round" stroke-linejoin="round" stroke-width="1"/>
  </g>
  <g id="グループ_69" data-name="グループ 69" transform="translate(10.988)" clip-path="url(#clip-path-3)">
    <path id="パス_149" data-name="パス 149" d="M49.51,7.715V1.97" transform="translate(-48.995 -1.517)" fill="none" stroke="#222" stroke-linecap="round" stroke-linejoin="round" stroke-width="1"/>
  </g>
  <g id="グループ_70" data-name="グループ 70" transform="translate(10.988 16.063)" clip-path="url(#clip-path-4)">
    <path id="パス_150" data-name="パス 150" d="M49.51,77.805V72.06" transform="translate(-48.995 -71.319)" fill="none" stroke="#222" stroke-linecap="round" stroke-linejoin="round" stroke-width="1"/>
  </g>
  <g id="グループ_71" data-name="グループ 71" transform="translate(4.237 8.397)" clip-path="url(#clip-path-5)">
    <path id="パス_151" data-name="パス 151" d="M33.806,45.5a6.255,6.255,0,0,1-.032.656,6.123,6.123,0,0,1-.1.649c-.044.216-.1.428-.159.637s-.138.416-.221.619a6.345,6.345,0,0,1-.281.593c-.1.193-.216.382-.338.563a6.751,6.751,0,0,1-.833,1.014c-.154.154-.317.3-.485.442s-.347.269-.529.391-.37.235-.563.338a6.346,6.346,0,0,1-.593.281c-.2.083-.409.156-.619.221s-.423.117-.637.161-.432.074-.651.1-.437.032-.655.032-.439-.012-.656-.032a6.256,6.256,0,0,1-.651-.1c-.214-.044-.428-.1-.637-.161s-.416-.136-.619-.221-.4-.179-.593-.281-.382-.216-.564-.338-.359-.253-.529-.391a6.806,6.806,0,0,1-.927-.929c-.138-.168-.269-.345-.391-.527s-.235-.37-.338-.563-.2-.391-.281-.593-.159-.409-.221-.619a6,6,0,0,1-.159-.637,6.123,6.123,0,0,1-.1-.649c-.021-.219-.032-.437-.032-.656s.011-.439.032-.655a6.255,6.255,0,0,1,.1-.651c.041-.216.1-.428.159-.637s.138-.416.221-.619a6.346,6.346,0,0,1,.281-.593c.1-.193.216-.382.338-.563s.253-.359.391-.529a6.3,6.3,0,0,1,.442-.488c.154-.154.317-.3.485-.442s.347-.269.529-.391.37-.235.564-.338.391-.2.593-.281a6.2,6.2,0,0,1,.619-.221c.209-.062.423-.117.637-.161s.432-.074.651-.1.437-.032.656-.032.439.012.655.032a6.256,6.256,0,0,1,.651.1c.214.044.428.1.637.161s.416.136.619.221a6.345,6.345,0,0,1,.593.281c.193.1.382.216.563.338s.359.253.529.391a6.271,6.271,0,0,1,.485.442c.156.156.3.317.442.488a5.809,5.809,0,0,1,.391.529c.122.182.235.37.338.563a6.345,6.345,0,0,1,.281.593c.083.2.159.409.221.619s.117.421.159.637a6.165,6.165,0,0,1,.1.651C33.795,45.061,33.806,45.279,33.806,45.5Z" transform="translate(-19.847 -38.043)" fill="none" stroke="#222" stroke-linecap="round" stroke-linejoin="round" stroke-width="1"/>
  </g>
  <g id="グループ_72" data-name="グループ 72" transform="translate(4.237)" clip-path="url(#clip-path-6)">
    <path id="パス_152" data-name="パス 152" d="M33.806,8.683a6.691,6.691,0,0,1-.129,1.306c-.044.214-.1.428-.159.637s-.138.416-.221.619a6.081,6.081,0,0,1-.281.593c-.1.193-.216.382-.338.564s-.251.359-.391.529a6.272,6.272,0,0,1-.442.485c-.154.156-.317.3-.485.442s-.347.269-.529.391-.37.235-.563.338-.391.2-.593.281-.409.159-.619.221-.423.117-.637.159a6.256,6.256,0,0,1-.651.1c-.218.021-.437.032-.655.032s-.439-.012-.656-.032a6.256,6.256,0,0,1-.651-.1c-.214-.041-.428-.1-.637-.159s-.416-.138-.619-.221a6.346,6.346,0,0,1-.593-.281c-.193-.1-.382-.216-.564-.338s-.359-.251-.529-.391-.331-.285-.485-.442a6.272,6.272,0,0,1-.442-.485c-.138-.17-.269-.347-.391-.529s-.235-.37-.338-.564-.2-.391-.281-.593-.159-.409-.221-.619-.117-.423-.159-.637a6.255,6.255,0,0,1-.1-.651c-.021-.219-.032-.437-.032-.656s.011-.439.032-.656a6.256,6.256,0,0,1,.1-.651c.041-.214.1-.428.159-.637s.138-.416.221-.619a6.082,6.082,0,0,1,.281-.593c.1-.193.216-.382.338-.564s.253-.359.391-.529a6.272,6.272,0,0,1,.442-.485c.154-.156.317-.3.485-.442s.347-.269.529-.391.37-.235.564-.338a6.346,6.346,0,0,1,.593-.281c.2-.083.409-.159.619-.221a6.137,6.137,0,0,1,.637-.159,6.256,6.256,0,0,1,.651-.1c.219-.021.437-.032.656-.032s.439.012.655.032a6.256,6.256,0,0,1,.651.1c.214.044.428.1.637.159s.416.138.619.221a6.346,6.346,0,0,1,.593.281c.193.1.382.216.563.338s.359.251.529.391.331.285.485.442.3.317.442.485a6.146,6.146,0,0,1,.391.529c.122.182.235.37.338.564a6.346,6.346,0,0,1,.281.593c.083.2.159.409.221.619a6.138,6.138,0,0,1,.159.637,6.255,6.255,0,0,1,.1.651c.021.219.032.437.032.656Z" transform="translate(-19.847 -1.532)" fill="none" stroke="#222" stroke-linecap="round" stroke-linejoin="round" stroke-width="1"/>
  </g>
  <g id="マスクグループ_73" data-name="マスクグループ 73" transform="translate(0 4.294)" clip-path="url(#clip-path-7)">
    <path id="パス_153" data-name="パス 153" d="M15.4,27.1c0,.219-.011.439-.032.656a6.123,6.123,0,0,1-.1.649c-.041.216-.1.428-.159.639s-.138.416-.221.619a6.346,6.346,0,0,1-.281.593c-.1.193-.216.382-.338.563s-.253.359-.391.527a6.3,6.3,0,0,1-.442.488c-.156.156-.317.3-.485.442a6.146,6.146,0,0,1-.529.391c-.182.122-.37.235-.564.338a6.347,6.347,0,0,1-.593.281c-.2.083-.409.159-.619.221s-.423.117-.637.159a6.257,6.257,0,0,1-.651.1c-.219.021-.437.032-.656.032s-.439-.012-.656-.032a6.257,6.257,0,0,1-.651-.1c-.214-.044-.428-.1-.637-.159s-.416-.138-.619-.221a6.347,6.347,0,0,1-.593-.281c-.193-.1-.382-.216-.564-.338s-.359-.251-.529-.391a6.272,6.272,0,0,1-.485-.442c-.156-.156-.3-.317-.442-.488a5.777,5.777,0,0,1-.391-.527c-.122-.182-.235-.37-.338-.564a6.346,6.346,0,0,1-.281-.593c-.083-.2-.159-.409-.221-.619a6.89,6.89,0,0,1-.255-1.288c-.021-.219-.032-.437-.032-.656s.012-.439.032-.656a6.256,6.256,0,0,1,.1-.651c.044-.214.1-.428.159-.637s.138-.416.221-.619a6.346,6.346,0,0,1,.281-.593c.1-.193.216-.382.338-.564s.251-.359.391-.529a6.966,6.966,0,0,1,.927-.927c.17-.138.347-.269.529-.391s.37-.235.564-.338.391-.2.593-.281.409-.159.619-.221a6.138,6.138,0,0,1,.637-.159,6.256,6.256,0,0,1,.651-.1c.219-.021.437-.032.656-.032s.439.011.656.032a6.256,6.256,0,0,1,.651.1c.214.041.428.1.637.159s.416.138.619.221a6.346,6.346,0,0,1,.593.281c.193.1.382.216.564.338s.359.253.529.391a6.966,6.966,0,0,1,.927.927c.138.17.269.347.391.529s.235.37.338.564.2.391.281.593.159.409.221.619.117.423.159.637a6.255,6.255,0,0,1,.1.651c.021.219.032.437.032.656Z" transform="translate(-1.548 -19.895)" fill="none" stroke="#222" stroke-linecap="round" stroke-linejoin="round" stroke-width="1"/>
  </g>
  <g id="グループ_74" data-name="グループ 74" transform="translate(8.648 4.294)" clip-path="url(#clip-path-8)">
    <path id="パス_154" data-name="パス 154" d="M52.218,27.1c0,.219-.012.439-.032.656a6.123,6.123,0,0,1-.1.649c-.044.216-.1.428-.159.639s-.138.416-.221.619-.179.4-.281.593-.216.382-.338.563-.253.359-.391.527a6.3,6.3,0,0,1-.442.488c-.156.154-.317.3-.488.442a5.777,5.777,0,0,1-.527.391c-.184.122-.37.235-.563.338a6.346,6.346,0,0,1-.593.281c-.2.083-.409.159-.619.221a6.89,6.89,0,0,1-1.288.255c-.218.021-.437.032-.656.032s-.439-.012-.655-.032a6.257,6.257,0,0,1-.651-.1c-.216-.044-.428-.1-.637-.159s-.416-.138-.619-.221a6.346,6.346,0,0,1-.593-.281c-.193-.1-.382-.216-.563-.338a6.275,6.275,0,0,1-.529-.391,5.875,5.875,0,0,1-.485-.442,6.3,6.3,0,0,1-.442-.488c-.138-.168-.269-.345-.391-.527s-.235-.37-.338-.564-.2-.391-.281-.593-.159-.409-.221-.619-.117-.423-.161-.639-.074-.43-.1-.649-.032-.437-.032-.656.011-.439.032-.656a6.256,6.256,0,0,1,.1-.651c.044-.214.1-.428.161-.637s.138-.416.221-.619a6.346,6.346,0,0,1,.281-.593c.1-.193.216-.382.338-.564s.253-.359.391-.529a6.966,6.966,0,0,1,.927-.927c.17-.138.345-.269.529-.391s.37-.235.563-.338.391-.2.593-.281.409-.159.619-.221a6,6,0,0,1,.637-.159,6.166,6.166,0,0,1,.651-.1c.218-.021.437-.032.655-.032s.437.011.656.032a6.123,6.123,0,0,1,.649.1c.216.041.428.1.639.159s.416.138.619.221a6.346,6.346,0,0,1,.593.281c.193.1.382.216.563.338s.359.253.527.391a6.3,6.3,0,0,1,.488.442c.154.154.3.317.442.485s.269.347.391.529.235.37.338.564a6.347,6.347,0,0,1,.281.593c.083.2.156.409.221.619a6.139,6.139,0,0,1,.159.637c.044.216.074.432.1.651s.032.437.032.656Z" transform="translate(-38.317 -19.895)" fill="none" stroke="#222" stroke-linecap="round" stroke-linejoin="round" stroke-width="1"/>
  </g>
</svg>
